<svg width="13" height="13" viewBox="0 0 13 13" fill="none" xmlns="http://www.w3.org/2000/svg">
<path d="M6.60957 0.590088C5.46591 0.590088 4.34794 0.929221 3.39703 1.5646C2.44611 2.19998 1.70497 3.10307 1.26731 4.15967C0.829654 5.21627 0.715143 6.37892 0.938259 7.5006C1.16137 8.62227 1.7121 9.6526 2.52078 10.4613C3.32947 11.27 4.35979 11.8207 5.48147 12.0438C6.60315 12.2669 7.7658 12.1524 8.8224 11.7148C9.879 11.2771 10.7821 10.536 11.4175 9.58504C12.0528 8.63413 12.392 7.51616 12.392 6.3725C12.392 5.61314 12.2424 4.86122 11.9518 4.15967C11.6612 3.45811 11.2353 2.82066 10.6983 2.28372C10.1614 1.74677 9.52395 1.32084 8.8224 1.03025C8.12084 0.739654 7.36892 0.590088 6.60957 0.590088ZM8.1766 7.11843C8.2308 7.17219 8.27381 7.23614 8.30317 7.30661C8.33253 7.37707 8.34764 7.45265 8.34764 7.52899C8.34764 7.60532 8.33253 7.6809 8.30317 7.75136C8.27381 7.82183 8.2308 7.88578 8.1766 7.93954C8.12284 7.99373 8.05889 8.03675 7.98843 8.06611C7.91796 8.09547 7.84238 8.11058 7.76605 8.11058C7.68971 8.11058 7.61413 8.09547 7.54367 8.06611C7.47321 8.03675 7.40925 7.99373 7.3555 7.93954L6.60957 7.18782L5.86363 7.93954C5.80988 7.99373 5.74592 8.03675 5.67546 8.06611C5.605 8.09547 5.52942 8.11058 5.45308 8.11058C5.37675 8.11058 5.30117 8.09547 5.2307 8.06611C5.16024 8.03675 5.09629 7.99373 5.04253 7.93954C4.98833 7.88578 4.94532 7.82183 4.91596 7.75136C4.8866 7.6809 4.87149 7.60532 4.87149 7.52899C4.87149 7.45265 4.8866 7.37707 4.91596 7.30661C4.94532 7.23614 4.98833 7.17219 5.04253 7.11843L5.79424 6.3725L5.04253 5.62657C4.93365 5.51769 4.87248 5.37001 4.87248 5.21602C4.87248 5.06203 4.93365 4.91435 5.04253 4.80547C5.15142 4.69658 5.2991 4.63541 5.45308 4.63541C5.60707 4.63541 5.75475 4.69658 5.86363 4.80547L6.60957 5.55718L7.3555 4.80547C7.46438 4.69658 7.61206 4.63541 7.76605 4.63541C7.92003 4.63541 8.06771 4.69658 8.1766 4.80547C8.28548 4.91435 8.34666 5.06203 8.34666 5.21602C8.34666 5.37001 8.28548 5.51769 8.1766 5.62657L7.42489 6.3725L8.1766 7.11843Z" fill="#5E5E5E"/>
</svg>
