<svg width="6" height="11" viewBox="0 0 6 11" fill="none" xmlns="http://www.w3.org/2000/svg">
<path d="M1.20374 0.54143C1.30956 0.54107 1.41412 0.564425 1.50973 0.609779C1.60534 0.655133 1.68957 0.721332 1.75624 0.803514L5.17749 5.05351C5.28167 5.18026 5.33862 5.33924 5.33862 5.50331C5.33862 5.66737 5.28167 5.82635 5.17749 5.9531L1.63582 10.2031C1.51559 10.3478 1.34282 10.4387 1.15552 10.456C0.968215 10.4733 0.781724 10.4154 0.637071 10.2952C0.492417 10.1749 0.40145 10.0022 0.384181 9.81488C0.366912 9.62757 0.424756 9.44108 0.544987 9.29643L3.71124 5.49976L0.651238 1.7031C0.564621 1.59912 0.5096 1.47252 0.492685 1.33825C0.47577 1.20399 0.49767 1.06769 0.555793 0.945481C0.613916 0.823274 0.705829 0.720275 0.820657 0.648669C0.935485 0.577063 1.06842 0.539849 1.20374 0.54143Z" fill="#E7DFD2"/>
</svg>
