<svg width="34" height="32" viewBox="0 0 34 32" fill="none" xmlns="http://www.w3.org/2000/svg">
<path d="M33.2963 15.5548L17.8483 0.346372C17.7371 0.236573 17.605 0.149463 17.4595 0.090028C17.3141 0.030593 17.1582 0 17.0007 0C16.8432 0 16.6873 0.030593 16.5419 0.090028C16.3965 0.149463 16.2643 0.236573 16.1531 0.346372L0.705081 15.5548C0.255029 15.9982 0 16.6005 0 17.2286C0 18.533 1.07637 19.5934 2.40028 19.5934H4.02796V30.4455C4.02796 31.0995 4.56427 31.6279 5.2281 31.6279H14.6004V23.3512H18.8009V31.6279H28.7733C29.4371 31.6279 29.9734 31.0995 29.9734 30.4455V19.5934H31.6011C32.2387 19.5934 32.85 19.3459 33.3001 18.8988C34.2339 17.975 34.2339 16.4786 33.2963 15.5548Z" fill="#67DCCB"/>
</svg>
