<svg width="39" height="32" viewBox="0 0 39 32" fill="none" xmlns="http://www.w3.org/2000/svg">
<path fill-rule="evenodd" clip-rule="evenodd" d="M10.5748 1.30793L11.8967 0H17.1841L18.506 1.30793V30.0823L17.1841 31.3902H11.8967L10.5748 30.0823V1.30793ZM13.2185 2.61585V28.7744H15.8623V2.61585H13.2185ZM21.6017 3.51832L22.3922 1.84156L27.3624 0.052317L29.0544 0.834457L39 27.8719L38.2095 29.5487L33.242 31.3379L31.55 30.5558L21.5991 3.51832H21.6017ZM24.5363 3.85315L33.5778 28.4317L36.0628 27.5397L27.0214 2.95853L24.5363 3.85315ZM0 1.30793L1.32185 0H6.60927L7.93113 1.30793V30.0823L6.60927 31.3902H1.32185L0 30.0823V1.30793ZM2.64371 2.61585V28.7744H5.28742V2.61585H2.64371Z" fill="#687371"/>
</svg>
