<svg width="29" height="29" viewBox="0 0 29 29" fill="none" xmlns="http://www.w3.org/2000/svg">
<path d="M14.4998 16.9167C17.1654 16.9167 19.3332 14.7489 19.3332 12.0833C19.3332 9.41775 17.1654 7.25 14.4998 7.25C11.8343 7.25 9.6665 9.41775 9.6665 12.0833C9.6665 14.7489 11.8343 16.9167 14.4998 16.9167ZM14.4998 9.66667C15.8326 9.66667 16.9165 10.7505 16.9165 12.0833C16.9165 13.4161 15.8326 14.5 14.4998 14.5C13.167 14.5 12.0832 13.4161 12.0832 12.0833C12.0832 10.7505 13.167 9.66667 14.4998 9.66667Z" fill="#0D0D0D"/>
<path d="M13.7989 26.3585C14.0035 26.5046 14.2485 26.5831 14.4998 26.5831C14.7511 26.5831 14.9961 26.5046 15.2006 26.3585C15.5679 26.0988 24.2015 19.865 24.1664 12.0833C24.1664 6.75333 19.8297 2.41663 14.4998 2.41663C9.16982 2.41663 4.83311 6.75333 4.83311 12.0773C4.79807 19.865 13.4316 26.0988 13.7989 26.3585ZM14.4998 4.83329C18.4982 4.83329 21.7498 8.08492 21.7498 12.0893C21.7752 17.4519 16.4476 22.2671 14.4998 23.8464C12.5532 22.2659 7.22441 17.4495 7.24978 12.0833C7.24978 8.08492 10.5014 4.83329 14.4998 4.83329Z" fill="#0D0D0D"/>
</svg>
