<svg width="29" height="29" viewBox="0 0 29 29" fill="none" xmlns="http://www.w3.org/2000/svg">
<path d="M14.5001 16.9167C17.1657 16.9167 19.3334 14.7489 19.3334 12.0833C19.3334 9.41775 17.1657 7.25 14.5001 7.25C11.8345 7.25 9.66675 9.41775 9.66675 12.0833C9.66675 14.7489 11.8345 16.9167 14.5001 16.9167ZM14.5001 9.66667C15.8329 9.66667 16.9167 10.7505 16.9167 12.0833C16.9167 13.4161 15.8329 14.5 14.5001 14.5C13.1673 14.5 12.0834 13.4161 12.0834 12.0833C12.0834 10.7505 13.1673 9.66667 14.5001 9.66667Z" fill="#E7DFD2"/>
<path d="M13.7992 26.3585C14.0037 26.5046 14.2487 26.5831 14.5 26.5831C14.7513 26.5831 14.9964 26.5046 15.2009 26.3585C15.5682 26.0988 24.2017 19.865 24.1667 12.0833C24.1667 6.75333 19.83 2.41663 14.5 2.41663C9.17007 2.41663 4.83336 6.75333 4.83336 12.0773C4.79832 19.865 13.4319 26.0988 13.7992 26.3585ZM14.5 4.83329C18.4984 4.83329 21.75 8.08492 21.75 12.0893C21.7754 17.4519 16.4479 22.2671 14.5 23.8464C12.5534 22.2659 7.22465 17.4495 7.25003 12.0833C7.25003 8.08492 10.5016 4.83329 14.5 4.83329Z" fill="#E7DFD2"/>
</svg>
