<svg width="50" height="50" viewBox="0 0 50 50" fill="none" xmlns="http://www.w3.org/2000/svg">
<circle cx="25" cy="25" r="20" fill="#67DCCB"/>
<circle cx="25" cy="25" r="24.25" stroke="#67DCCB" stroke-width="1.5"/>
<path d="M23.5683 33.8167L23.9277 33.5985L23.8539 33.0306L23.5683 33.8167ZM32.2479 27.332L32.5687 27.8422L32.803 27.2903L32.2479 27.332ZM23.5009 30.3642L23.5298 30.5856L22.0217 34.7569L22.3843 34.5387L23.6068 31.1696L23.5747 30.9289L30.8071 27.4668L29.9633 27.2807L23.5009 30.3642ZM23.3469 29.2027L23.4207 29.7578L29.0424 27.0689L28.1953 26.8828L23.3469 29.2027ZM35.4983 27.3224L36.14 27.5117L35.6972 26.671L35.4983 27.3224ZM31.574 26.2764L31.8949 26.7865L33.0372 26.7031L33.2682 26.1544L31.574 26.2764ZM23.0261 26.8796L23.1127 27.4411L25.5064 26.2956L24.6593 26.1095L23.0261 26.8796ZM34.4426 27.0079L35.0843 27.1972L35.4052 26.1191L34.9592 25.2785L34.4426 27.0079ZM30.913 25.2239L31.2339 25.7341L33.5121 25.5672L33.7431 25.0186L30.913 25.2239ZM30.2553 24.1715L30.5761 24.6817L33.9934 24.4314L34.2244 23.8827L30.2553 24.1715ZM34.218 23.8891L33.3837 26.6903L34.0255 26.8796L34.6672 24.7234L34.2244 23.8827L34.218 23.8891ZM16.7691 20.0612L17.3274 20.5746L17.8408 18.4953L17.1991 18.3285L16.7691 20.0612ZM15.8418 19.2045L16.4001 19.7403L16.7691 18.2354L16.1274 18.0686L15.8418 19.2045ZM14.9145 18.351L15.4728 18.8643L15.7006 17.9402L15.0589 17.7734L14.9145 18.351ZM14.5455 18.0076L14.6289 17.6611L14 17.4942L14.5455 18.0076ZM25.2016 16.3231L32.3794 27.7876L31.7377 27.6465L23.6614 31.4969L23.732 32.0455L32.5719 27.8165L27.1813 19.2462L25.2561 16.1562L25.2016 16.3231ZM23.0421 25.0699L23.5266 25.8432L22.8849 25.7052L22.9234 26.0068L22.8817 25.686L23.0421 25.0699ZM22.7533 24.5918L22.5544 24.3062L22.3426 25.195L22.8945 25.702L18.935 36.5986L19.2879 36.3869L22.9587 26.2699L23.7384 25.8977H23.7095L23.087 24.903L23.4079 23.6196L25.0122 26.1865L25.1919 26.2282L23.456 23.4527L23.7769 22.1693L26.4947 26.5074H26.4433L23.209 28.054V28.1566L20.4751 35.6874L20.8345 35.4628L23.2828 28.7246L23.2539 28.5V28.6059L27.2615 26.6807L26.5364 26.5202L26.6455 26.5459L23.8058 21.9864L24.1266 20.7029L27.9578 26.8218L28.1407 26.8635L24.1651 20.5296L24.486 19.2462L29.4274 27.1523L29.6103 27.194L24.5245 19.0697L24.8646 17.6964L24.8422 17.7926L30.9034 27.4764L31.0863 27.5181L24.8839 17.613L25.2304 16.1562L24.8454 16.0728L22.7533 24.5918ZM21.9223 23.4142L21.7073 23.1126L21.4057 24.3383L21.964 24.8742L22.2175 23.8506L24.1716 15.9188L23.7801 15.8354L21.9223 23.4142ZM21.088 22.2334L20.8634 21.9126L20.4784 23.4752L21.0367 23.9918L21.38 22.6506L21.3993 22.6794L23.1127 15.6974L22.7244 15.6108L21.088 22.2334ZM20.2537 21.0559L20.0195 20.735L19.551 22.6281L20.1094 23.1415L20.5297 21.4441L20.5586 21.489L22.0474 15.4535L21.6559 15.3701L20.2537 21.0559ZM19.4195 19.8783L19.1756 19.5317L18.6237 21.7778L19.182 22.3072L19.6858 20.2697L19.7243 20.3275L20.9789 15.2482L20.5907 15.1647L19.4195 19.8783ZM18.5884 18.7135V18.6975L18.2676 18.6173L17.6964 20.9307L18.2547 21.4441L18.8387 19.0697L18.6269 18.7681L18.8933 19.1435L19.9136 15.0043L19.5222 14.9273L18.5884 18.7135ZM17.7542 17.5327L18.059 17.9659L18.8451 14.7765L18.4537 14.6899L17.7542 17.5327ZM16.9199 16.3552L17.2247 16.7851L17.7798 14.5391L17.3884 14.4556L16.9199 16.3552ZM16.0889 15.1776L16.3937 15.6075L16.7146 14.3241L16.3199 14.231L16.0889 15.1776ZM15.5594 14.43L15.6429 14.0834L15.2546 14L15.5594 14.43Z" fill="#1D1D1B"/>
</svg>
