<svg width="20" height="20" viewBox="0 0 20 20" fill="none" xmlns="http://www.w3.org/2000/svg">
<path d="M10 0C4.48 0 0 4.48 0 10C0 15.52 4.48 20 10 20C15.52 20 20 15.52 20 10C20 4.48 15.52 0 10 0ZM10.91 16.15C10.8401 16.2185 10.7517 16.265 10.6556 16.2837C10.5595 16.3025 10.4601 16.2926 10.3696 16.2553C10.2791 16.2181 10.2015 16.155 10.1465 16.0741C10.0914 15.9932 10.0614 15.8979 10.06 15.8V15H10C8.72 15 7.44 14.51 6.46 13.54C5.78103 12.8594 5.31245 11.9976 5.11028 11.0577C4.90812 10.1178 4.98093 9.1396 5.32 8.24C5.51 7.73 6.18 7.6 6.56 7.99C6.78 8.21 6.83 8.53 6.73 8.81C6.27 10.05 6.53 11.49 7.53 12.49C8.23 13.19 9.15 13.52 10.07 13.5V12.56C10.07 12.11 10.61 11.89 10.92 12.21L12.54 13.83C12.74 14.03 12.74 14.34 12.54 14.54L10.91 16.15ZM13.44 12.02C13.3366 11.9136 13.2657 11.78 13.2356 11.6347C13.2055 11.4895 13.2174 11.3387 13.27 11.2C13.73 9.96 13.47 8.52 12.47 7.52C11.77 6.82 10.85 6.48 9.94 6.5V7.44C9.94 7.89 9.4 8.11 9.09 7.79L7.46 6.18C7.26 5.98 7.26 5.67 7.46 5.47L9.08 3.85C9.14989 3.78148 9.23834 3.73498 9.33441 3.71626C9.43048 3.69753 9.52992 3.70742 9.62042 3.74468C9.71093 3.78195 9.7885 3.84496 9.84353 3.92589C9.89856 4.00683 9.92863 4.10214 9.93 4.2V5.01C11.23 4.99 12.54 5.46 13.53 6.46C14.209 7.14063 14.6776 8.0024 14.8797 8.94229C15.0819 9.88217 15.0091 10.8604 14.67 11.76C14.48 12.28 13.82 12.41 13.44 12.02Z" fill="#737877"/>
</svg>
