<svg width="20" height="20" viewBox="0 0 20 20" fill="none" xmlns="http://www.w3.org/2000/svg">
<path d="M8.33649 15.0961C9.78236 15.0958 11.1866 14.6117 12.3255 13.7211L15.9064 17.302L17.0582 16.1501L13.4773 12.5692C14.3685 11.4302 14.8528 10.0257 14.8532 8.57941C14.8532 4.98628 11.9296 2.06274 8.33649 2.06274C4.74336 2.06274 1.81982 4.98628 1.81982 8.57941C1.81982 12.1725 4.74336 15.0961 8.33649 15.0961ZM8.33649 3.69191C11.0319 3.69191 13.224 5.88395 13.224 8.57941C13.224 11.2749 11.0319 13.4669 8.33649 13.4669C5.64103 13.4669 3.44899 11.2749 3.44899 8.57941C3.44899 5.88395 5.64103 3.69191 8.33649 3.69191Z" fill="black"/>
<path d="M9.48663 7.42761C9.79536 7.73715 9.9656 8.14607 9.9656 8.57943H11.5948C11.5955 8.15131 11.5113 7.72729 11.3472 7.33188C11.1831 6.93648 10.9422 6.57753 10.6384 6.27579C9.40517 5.04414 7.26689 5.04414 6.03442 6.27579L7.18462 7.42924C7.8037 6.81178 8.8708 6.81341 9.48663 7.42761Z" fill="black"/>
</svg>
