<svg width="66" height="56" viewBox="0 0 66 56" fill="none" xmlns="http://www.w3.org/2000/svg">
<rect width="66" height="56" rx="6" fill="#E7DFD2"/>
<path d="M31.2801 18.3V24.735H31.2141L26.8691 18.3H25.9891V26H26.7371V19.554H26.8031L31.1701 26H32.0391V18.3H31.2801ZM37.5535 26.11C39.6655 26.11 41.2605 24.416 41.2605 22.15C41.2605 19.873 39.6545 18.19 37.5535 18.19C35.4305 18.19 33.8465 19.873 33.8465 22.15C33.8465 24.427 35.4305 26.11 37.5535 26.11ZM37.5535 25.395C35.8815 25.395 34.6165 23.998 34.6165 22.15C34.6165 20.302 35.8815 18.905 37.5535 18.905C39.2255 18.905 40.4905 20.302 40.4905 22.15C40.4905 23.998 39.2365 25.395 37.5535 25.395ZM22.2857 32.015V31.3H17.8197V39H18.5787V35.491H21.8347V34.809H18.5787V32.015H22.2857ZM24.5084 31.3H23.7494V39H24.5084V31.3ZM27.4085 38.296V31.3H26.6605V39H31.4235V38.296H27.4085ZM36.6966 31.3H31.4166V32.004H33.6826V39H34.4416V32.004H36.6966V31.3ZM38.8811 38.307V35.436H42.3901V34.754H38.8811V31.993H42.8191V31.3H38.1331V39H42.9291V38.307H38.8811ZM49.7618 39L47.6278 35.524C48.7058 35.304 49.3878 34.567 49.3878 33.434C49.3878 32.125 48.4858 31.3 47.0448 31.3H44.4818V39H45.2298V35.645H46.8578L48.8928 39H49.7618ZM45.2298 31.982H46.9238C47.9688 31.982 48.6288 32.499 48.6288 33.456C48.6288 34.358 48.0018 34.974 46.9238 34.974H45.2298V31.982Z" fill="black"/>
</svg>
