<svg width="24" height="23" viewBox="0 0 24 23" fill="none" xmlns="http://www.w3.org/2000/svg">
<path d="M12 0C5.71836 0 0.625 5.09336 0.625 11.375C0.625 17.6566 5.71836 22.75 12 22.75C18.2816 22.75 23.375 17.6566 23.375 11.375C23.375 5.09336 18.2816 0 12 0ZM12 20.8203C6.78477 20.8203 2.55469 16.5902 2.55469 11.375C2.55469 6.15977 6.78477 1.92969 12 1.92969C17.2152 1.92969 21.4453 6.15977 21.4453 11.375C21.4453 16.5902 17.2152 20.8203 12 20.8203Z" fill="#0D0D0D"/>
<path d="M16.1666 11.2048L10.6213 7.17279C10.5909 7.15075 10.5551 7.13755 10.5177 7.13464C10.4803 7.13174 10.4428 7.13925 10.4094 7.15634C10.376 7.17343 10.348 7.19943 10.3285 7.23147C10.309 7.2635 10.2987 7.30031 10.2988 7.33782V15.4019C10.2989 15.4393 10.3093 15.476 10.3288 15.5079C10.3484 15.5399 10.3764 15.5658 10.4097 15.5828C10.443 15.5999 10.4804 15.6074 10.5177 15.6046C10.5551 15.6018 10.5909 15.5888 10.6213 15.5669L16.1666 11.5324C16.1928 11.5138 16.2142 11.4893 16.2289 11.4608C16.2437 11.4323 16.2514 11.4007 16.2514 11.3686C16.2514 11.3365 16.2437 11.3049 16.2289 11.2764C16.2142 11.2479 16.1928 11.2233 16.1666 11.2048Z" fill="#0D0D0D"/>
</svg>
