<svg width="46" height="46" viewBox="0 0 46 46" fill="none" xmlns="http://www.w3.org/2000/svg">
<path d="M32.4686 21.3532H24.6467V13.5313C24.6467 13.3049 24.4615 13.1196 24.2351 13.1196H21.765C21.5386 13.1196 21.3533 13.3049 21.3533 13.5313V21.3532H13.5314C13.305 21.3532 13.1198 21.5385 13.1198 21.7649V24.2349C13.1198 24.4614 13.305 24.6466 13.5314 24.6466H21.3533V32.4685C21.3533 32.6949 21.5386 32.8802 21.765 32.8802H24.2351C24.4615 32.8802 24.6467 32.6949 24.6467 32.4685V24.6466H32.4686C32.6951 24.6466 32.8803 24.4614 32.8803 24.2349V21.7649C32.8803 21.5385 32.6951 21.3532 32.4686 21.3532Z" fill="#948772"/>
<path d="M23 0C10.2987 0 0 10.2987 0 23C0 35.7013 10.2987 46 23 46C35.7013 46 46 35.7013 46 23C46 10.2987 35.7013 0 23 0ZM23 42.0982C12.4549 42.0982 3.90179 33.5451 3.90179 23C3.90179 12.4549 12.4549 3.90179 23 3.90179C33.5451 3.90179 42.0982 12.4549 42.0982 23C42.0982 33.5451 33.5451 42.0982 23 42.0982Z" fill="#948772"/>
</svg>
