<svg width="33" height="33" viewBox="0 0 33 33" fill="none" xmlns="http://www.w3.org/2000/svg">
<path d="M23.2928 15.3186H17.6815V9.7072C17.6815 9.54477 17.5486 9.41187 17.3861 9.41187H15.6141C15.4517 9.41187 15.3188 9.54477 15.3188 9.7072V15.3186H9.70744C9.54501 15.3186 9.41211 15.4515 9.41211 15.6139V17.3859C9.41211 17.5483 9.54501 17.6812 9.70744 17.6812H15.3188V23.2926C15.3188 23.455 15.4517 23.5879 15.6141 23.5879H17.3861C17.5486 23.5879 17.6815 23.455 17.6815 23.2926V17.6812H23.2928C23.4553 17.6812 23.5882 17.5483 23.5882 17.3859V15.6139C23.5882 15.4515 23.4553 15.3186 23.2928 15.3186Z" fill="#6F7A78"/>
<path d="M16.5 0C7.38817 0 0 7.38817 0 16.5C0 25.6118 7.38817 33 16.5 33C25.6118 33 33 25.6118 33 16.5C33 7.38817 25.6118 0 16.5 0ZM16.5 30.2009C8.93505 30.2009 2.79911 24.065 2.79911 16.5C2.79911 8.93505 8.93505 2.79911 16.5 2.79911C24.065 2.79911 30.2009 8.93505 30.2009 16.5C30.2009 24.065 24.065 30.2009 16.5 30.2009Z" fill="#6F7A78"/>
</svg>
