<svg width="18" height="24" viewBox="0 0 18 24" fill="none"  xmlns="http://www.w3.org/2000/svg">
<path d="M16.2 0H5.4C4.92261 0 4.46477 0.189642 4.12721 0.527208C3.78964 0.864773 3.6 1.32261 3.6 1.8V3.6H1.8C1.32261 3.6 0.864773 3.78964 0.527208 4.12721C0.189642 4.46477 0 4.92261 0 5.4V22.5C0 22.7387 0.0948213 22.9676 0.263604 23.1364C0.432387 23.3052 0.661305 23.4 0.9 23.4C1.08939 23.3994 1.274 23.3404 1.42875 23.2312L7.2 19.1025L12.9825 23.2312C13.1159 23.3295 13.2744 23.388 13.4396 23.3999C13.6049 23.4119 13.7701 23.3768 13.9162 23.2987C14.0614 23.2216 14.1831 23.1067 14.2682 22.966C14.3534 22.8254 14.3989 22.6644 14.4 22.5V18.0787L16.5825 19.6312C16.7324 19.7416 16.9138 19.8008 17.1 19.8C17.3387 19.8 17.5676 19.7052 17.7364 19.5364C17.9052 19.3676 18 19.1387 18 18.9V1.8C18 1.32261 17.8104 0.864773 17.4728 0.527208C17.1352 0.189642 16.6774 0 16.2 0ZM12.6 20.7562L7.7175 17.2687C7.56761 17.1584 7.38615 17.0992 7.2 17.1C7.01061 17.1006 6.826 17.1596 6.67125 17.2687L1.8 20.7562V5.4H12.6V20.7562ZM16.2 17.1562L14.4 15.8625V5.4C14.4 4.92261 14.2104 4.46477 13.8728 4.12721C13.5352 3.78964 13.0774 3.6 12.6 3.6H5.4V1.8H16.2V17.1562Z" fill="#E7DFD2"/>
</svg>
