<svg width="20" height="20" viewBox="0 0 20 20" fill="none" xmlns="http://www.w3.org/2000/svg">
<path d="M8.33655 15.0961C9.78242 15.0958 11.1866 14.6117 12.3256 13.7211L15.9065 17.302L17.0583 16.1501L13.4774 12.5692C14.3685 11.4302 14.8529 10.0257 14.8532 8.57941C14.8532 4.98628 11.9297 2.06274 8.33655 2.06274C4.74342 2.06274 1.81989 4.98628 1.81989 8.57941C1.81989 12.1725 4.74342 15.0961 8.33655 15.0961ZM8.33655 3.69191C11.032 3.69191 13.2241 5.88395 13.2241 8.57941C13.2241 11.2749 11.032 13.4669 8.33655 13.4669C5.6411 13.4669 3.44905 11.2749 3.44905 8.57941C3.44905 5.88395 5.6411 3.69191 8.33655 3.69191Z" fill="#877D6D"/>
<path d="M9.48675 7.42761C9.79548 7.73715 9.96573 8.14607 9.96573 8.57943H11.5949C11.5956 8.15131 11.5115 7.72729 11.3473 7.33188C11.1832 6.93648 10.9423 6.57753 10.6386 6.27579C9.40529 5.04414 7.26701 5.04414 6.03455 6.27579L7.18474 7.42924C7.80382 6.81178 8.87093 6.81341 9.48675 7.42761Z" fill="#877D6D"/>
</svg>
