<svg width="22" height="22" viewBox="0 0 22 22" fill="none" xmlns="http://www.w3.org/2000/svg">
<g clip-path="url(#clip0_355_193)">
<path d="M11.0611 6.72217C8.67777 6.72217 6.78333 8.61661 6.78333 10.9999C6.78333 13.3833 8.67777 15.2777 11.0611 15.2777C13.4444 15.2777 15.3389 13.3833 15.3389 10.9999C15.3389 8.61661 13.4444 6.72217 11.0611 6.72217ZM11.0611 14.0555C9.34999 14.0555 8.00555 12.7111 8.00555 10.9999C8.00555 9.28883 9.34999 7.94439 11.0611 7.94439C12.7722 7.94439 14.1167 9.28883 14.1167 10.9999C14.1167 12.7111 12.7722 14.0555 11.0611 14.0555Z" fill="#717171"/>
<path d="M20.0445 8.98328L18.3333 8.43328L17.9667 7.51661L18.8222 5.92772C19.0056 5.56106 18.9445 5.07217 18.6389 4.76661L17.1722 3.29995C16.8667 2.99439 16.3778 2.93328 16.0111 3.11661L14.4222 3.97217L13.5056 3.6055L12.9556 1.89439C12.8333 1.52772 12.4667 1.22217 12.0389 1.22217H9.96112C9.53334 1.22217 9.16667 1.52772 9.10556 1.9555L8.55556 3.66661C8.1889 3.72772 7.88334 3.84995 7.57779 4.03328L5.9889 3.17772C5.62223 2.99439 5.13334 3.0555 4.82779 3.36106L3.36112 4.82772C3.05556 5.13328 2.99445 5.62217 3.17778 5.98884L3.97223 7.51661C3.85001 7.82217 3.72778 8.18884 3.60556 8.49439L1.89445 9.04439C1.52778 9.16661 1.22223 9.53328 1.22223 9.96106V12.0388C1.22223 12.4666 1.52778 12.8333 1.95556 12.9555L3.66667 13.5055L4.03334 14.4222L3.17778 16.0111C2.99445 16.3777 3.05556 16.8666 3.36112 17.1722L4.82779 18.6388C5.13334 18.9444 5.62223 19.0055 5.9889 18.8222L7.57779 17.9666L8.49445 18.3333L9.04445 20.1055C9.16667 20.4722 9.53334 20.7777 9.96112 20.7777H12.0389C12.4667 20.7777 12.8333 20.4722 12.9556 20.1055L13.5056 18.3333L14.4222 17.9666L16.0111 18.8222C16.3778 19.0055 16.8667 18.9444 17.1722 18.6388L18.6389 17.1722C18.9445 16.8666 19.0056 16.3777 18.8222 16.0111L17.9667 14.4222L18.3333 13.5055L20.1056 12.9555C20.4722 12.8333 20.7778 12.4666 20.7778 12.0388V9.96106C20.7778 9.53328 20.4722 9.1055 20.0445 8.98328ZM19.5556 11.8555L17.3556 12.5277L17.2945 12.8333L16.7445 14.1166L16.5611 14.4222L17.6611 16.4388L16.4389 17.6611L14.4222 16.5611L14.1167 16.7444C13.6889 16.9888 13.2611 17.1722 12.8333 17.2944L12.5278 17.3555L11.8556 19.5555H10.1445L9.47223 17.3555L9.16667 17.2944L7.88334 16.7444L7.57779 16.5611L5.56112 17.6611L4.3389 16.4388L5.4389 14.4222L5.25556 14.1166C5.01112 13.6888 4.82778 13.2611 4.70556 12.8333L4.64445 12.5277L2.44445 11.8555V10.1444L4.52223 9.53328L4.64445 9.22772C4.76667 8.73884 4.95001 8.31106 5.19445 7.88328L5.37779 7.57772L4.3389 5.56106L5.56112 4.33883L7.51667 5.43883L7.82223 5.2555C8.25001 5.01106 8.67779 4.82772 9.16667 4.7055L9.47223 4.58328L10.1445 2.44439H11.8556L12.5278 4.58328L12.8333 4.7055C13.2611 4.82772 13.6889 5.01106 14.1167 5.2555L14.4222 5.43883L16.4389 4.33883L17.6611 5.56106L16.5611 7.57772L16.7445 7.88328C16.9889 8.31106 17.1722 8.73884 17.2945 9.16661L17.3556 9.47217L19.5556 10.1444V11.8555Z" fill="#717171"/>
</g>
<defs>
<clipPath id="clip0_355_193">
<rect width="22" height="22" fill="white"/>
</clipPath>
</defs>
</svg>
