<svg width="16" height="20" viewBox="0 0 16 20" fill="none" xmlns="http://www.w3.org/2000/svg">
<path d="M14.9 9.10007C15.1174 9.10008 15.3276 9.17884 15.4915 9.32179C15.6554 9.46474 15.762 9.66221 15.7916 9.87767L15.8 10.0001V16.3001C15.8 17.1404 15.4794 17.9491 14.9037 18.5612C14.3279 19.1733 13.5403 19.5427 12.7016 19.5941L12.5 19.6001H3.49995C2.65961 19.6001 1.8509 19.2796 1.23879 18.7038C0.626686 18.128 0.257289 17.3404 0.205951 16.5017L0.199951 16.3001V10.0001C0.200021 9.77204 0.286645 9.55254 0.442318 9.38592C0.597992 9.2193 0.811109 9.11798 1.03861 9.10244C1.26611 9.0869 1.49102 9.15829 1.66791 9.30219C1.8448 9.44609 1.96047 9.65177 1.99155 9.87767L1.99995 10.0001V16.3001C1.99995 17.0765 2.59035 17.7161 3.34635 17.7929L3.49995 17.8001H12.5C12.8711 17.7999 13.229 17.6622 13.5045 17.4135C13.78 17.1649 13.9535 16.8229 13.9916 16.4537L14 16.3001V10.0001C14 9.76138 14.0948 9.53246 14.2636 9.36368C14.4323 9.19489 14.6613 9.10007 14.9 9.10007ZM2.27235 5.75447L7.36395 0.66407C7.51634 0.511648 7.71836 0.418975 7.93329 0.402899C8.14822 0.386823 8.36179 0.448413 8.53515 0.57647L8.63595 0.66407L13.7276 5.75447C13.8906 5.9146 13.9867 6.13079 13.9962 6.35915C14.0058 6.58752 13.928 6.81095 13.7789 6.98411C13.6297 7.15727 13.4202 7.26719 13.1929 7.29154C12.9657 7.3159 12.7376 7.25288 12.5552 7.11527L12.4544 7.02767L8.89995 3.47207V12.7001C8.89994 12.9176 8.82118 13.1277 8.67823 13.2916C8.53528 13.4555 8.33782 13.5621 8.12235 13.5917L7.99995 13.6001C7.78247 13.6001 7.57234 13.5213 7.40843 13.3784C7.24453 13.2354 7.13793 13.0379 7.10835 12.8225L7.09995 12.7001V3.47207L3.54555 7.02767C3.3931 7.18041 3.19083 7.27328 2.97563 7.28936C2.76043 7.30544 2.54661 7.24365 2.37315 7.11527L2.27235 7.02767C2.11962 6.87521 2.02674 6.67295 2.01067 6.45775C1.99459 6.24255 2.05637 6.02873 2.18475 5.85527L2.27235 5.75447L7.36395 0.66407L2.27235 5.75447Z" fill="#D1CABE"/>
</svg>
