<svg width="82" height="82" viewBox="0 0 82 82" fill="none" xmlns="http://www.w3.org/2000/svg">
<g filter="url(#filter0_d_360_371)">
<circle cx="41" cy="37" r="30" fill="#67DCCB"/>
</g>
<path d="M32.4286 25H49.5714C50.4807 25 51.3528 25.3612 51.9958 26.0042C52.6388 26.6472 53 27.5193 53 28.4286V45.5714C53 46.4807 52.6388 47.3528 51.9958 47.9958C51.3528 48.6388 50.4807 49 49.5714 49H32.4286C31.5193 49 30.6472 48.6388 30.0042 47.9958C29.3612 47.3528 29 46.4807 29 45.5714V28.4286C29 27.5193 29.3612 26.6472 30.0042 26.0042C30.6472 25.3612 31.5193 25 32.4286 25Z" fill="white"/>
<defs>
<filter id="filter0_d_360_371" x="0" y="0" width="82" height="82" filterUnits="userSpaceOnUse" color-interpolation-filters="sRGB">
<feFlood flood-opacity="0" result="BackgroundImageFix"/>
<feColorMatrix in="SourceAlpha" type="matrix" values="0 0 0 0 0 0 0 0 0 0 0 0 0 0 0 0 0 0 127 0" result="hardAlpha"/>
<feOffset dy="4"/>
<feGaussianBlur stdDeviation="5.5"/>
<feComposite in2="hardAlpha" operator="out"/>
<feColorMatrix type="matrix" values="0 0 0 0 0 0 0 0 0 0 0 0 0 0 0 0 0 0 0.16 0"/>
<feBlend mode="normal" in2="BackgroundImageFix" result="effect1_dropShadow_360_371"/>
<feBlend mode="normal" in="SourceGraphic" in2="effect1_dropShadow_360_371" result="shape"/>
</filter>
</defs>
</svg>
