<svg width="19" height="19" viewBox="0 0 19 19" fill="none" xmlns="http://www.w3.org/2000/svg">
<path d="M13.4109 8.81977H10.1802V5.58899C10.1802 5.49546 10.1036 5.41895 10.0101 5.41895H8.98987C8.89635 5.41895 8.81983 5.49546 8.81983 5.58899V8.81977H5.58905C5.49552 8.81977 5.41901 8.89629 5.41901 8.98981V10.0101C5.41901 10.1036 5.49552 10.1801 5.58905 10.1801H8.81983V13.4109C8.81983 13.5044 8.89635 13.5809 8.98987 13.5809H10.0101C10.1036 13.5809 10.1802 13.5044 10.1802 13.4109V10.1801H13.4109C13.5045 10.1801 13.581 10.1036 13.581 10.0101V8.98981C13.581 8.89629 13.5045 8.81977 13.4109 8.81977Z" fill="white"/>
<path d="M9.5 0C4.25379 0 0 4.25379 0 9.5C0 14.7462 4.25379 19 9.5 19C14.7462 19 19 14.7462 19 9.5C19 4.25379 14.7462 0 9.5 0ZM9.5 17.3884C5.14442 17.3884 1.61161 13.8556 1.61161 9.5C1.61161 5.14442 5.14442 1.61161 9.5 1.61161C13.8556 1.61161 17.3884 5.14442 17.3884 9.5C17.3884 13.8556 13.8556 17.3884 9.5 17.3884Z" fill="white"/>
</svg>
