<svg width="34" height="35" viewBox="0 0 34 35" fill="none" xmlns="http://www.w3.org/2000/svg">
<path d="M2 32.5054H32" stroke="#687371" stroke-width="3" stroke-linecap="round" stroke-linejoin="round"/>
<path d="M2 32.5054C2 26.0768 6.28571 23.9187 6.28571 23.9187C8.42857 22.6816 10.5714 23.9187 12.7143 21.7759" stroke="#687371" stroke-width="3" stroke-linecap="round" stroke-linejoin="round"/>
<path d="M12.7158 21.7759C12.7158 21.7759 14.8587 23.9187 17.0015 23.9187" stroke="#687371" stroke-width="3" stroke-linecap="round" stroke-linejoin="round"/>
<path d="M31.9985 32.5054C31.9985 26.0768 27.7127 23.9187 27.7127 23.9187C25.5699 22.6816 23.427 23.9187 21.2842 21.7759" stroke="#687371" stroke-width="3" stroke-linecap="round" stroke-linejoin="round"/>
<path d="M21.2857 21.7759C21.2857 21.7759 19.1429 23.9187 17 23.9187" stroke="#687371" stroke-width="3" stroke-linecap="round" stroke-linejoin="round"/>
<path d="M17 2.49023C21.2857 2.49023 23.4286 4.63309 23.4286 11.0617C23.4286 16.4188 19.1429 19.6331 17 19.6331" stroke="#687371" stroke-width="3" stroke-linecap="round" stroke-linejoin="round"/>
<path d="M17.0008 2.49023C12.7151 2.49023 10.5723 4.63309 10.5723 11.0617C10.5723 16.4188 14.858 19.6331 17.0008 19.6331" stroke="#687371" stroke-width="3" stroke-linecap="round" stroke-linejoin="round"/>
<path d="M21.2847 21.7761L20.2915 18.0693" stroke="#687371" stroke-width="3" stroke-linecap="round" stroke-linejoin="round"/>
<path d="M12.7158 21.7761L13.709 18.0693" stroke="#687371" stroke-width="3" stroke-linecap="round" stroke-linejoin="round"/>
</svg>
